<?xml version="1.0" encoding="UTF-8"?>
<svg id="Layer_2" data-name="Layer 2" xmlns="http://www.w3.org/2000/svg" viewBox="0 0 26 26">
  <defs>
    <style>
      .cls-1 {
        fill: #0095f6;
      }

      .cls-2 {
        fill: #fff;
      }

      .cls-3 {
        fill: #cceafd;
      }
    </style>
  </defs>
  <g id="Layer_1-2" data-name="Layer 1">
    <g>
      <path class="cls-3" d="M13,26C5.83,26,0,20.17,0,13S5.83,0,13,0s13,5.83,13,13-5.83,13-13,13Z"/>
      <circle class="cls-1" cx="13" cy="13" r="10.95"/>
      <path class="cls-2" d="M19.11,8.07c-.38-.51-.83-.97-1.32-1.36,0,0-.01-.01-.02-.02,0,0,0,0,0,0-.5-.4-1.04-.73-1.63-.99,0,0,0,0,0,0l-.12,.43h0s-.66,2.38-.66,2.38c0,0,0,0,0,0h0s-2.35,1.77-2.35,1.77h0s-2.35-1.77-2.35-1.77h0s-.66-2.38-.66-2.38l-.12-.44c-.59,.26-1.13,.6-1.63,1,0,0,0,0,0,0,0,0-.01,.01-.02,.02-.22,.17-.42,.36-.62,.55-.25,.25-.49,.52-.7,.81-.96,1.28-1.54,2.87-1.54,4.6,0,4.22,3.42,7.64,7.64,7.64h0c2.11,0,4.02-.86,5.4-2.24,1.38-1.38,2.24-3.29,2.24-5.4,0-1.73-.57-3.32-1.54-4.6Zm-2.73,7.98c-.86,.86-2.06,1.4-3.38,1.4h0c-2.64,0-4.78-2.14-4.78-4.78,0-1.08,.36-2.07,.96-2.87l2.23,1.68,1.59,1.19h0s1.59-1.19,1.59-1.19l2.23-1.68c.6,.8,.96,1.79,.96,2.87,0,1.32-.53,2.51-1.4,3.38Z"/>
    </g>
  </g>
</svg>