<?xml version="1.0" encoding="UTF-8"?>
<svg id="Layer_2" data-name="Layer 2" xmlns="http://www.w3.org/2000/svg" viewBox="0 0 26 26">
  <defs>
    <style>
      .cls-1 {
        fill: #0095f6;
      }

      .cls-2 {
        fill: #fff;
      }
    </style>
  </defs>
  <g id="Layer_1-2" data-name="Layer 1">
    <g>
      <path class="cls-1" d="M26,13c0,1.08-2.05,1.87-2.31,2.86s1.09,2.74,.57,3.64-2.7,.58-3.44,1.32-.41,2.91-1.32,3.44-2.61-.85-3.64-.57-1.79,2.31-2.86,2.31-1.87-2.05-2.86-2.31-2.74,1.09-3.64,.57-.58-2.7-1.32-3.44-2.91-.41-3.44-1.32,.85-2.61,.57-3.64-2.31-1.79-2.31-2.86,2.05-1.87,2.31-2.86-1.09-2.74-.57-3.64,2.7-.58,3.44-1.32,.41-2.91,1.32-3.44,2.61,.85,3.64,.57,1.79-2.31,2.86-2.31,1.87,2.05,2.86,2.31,2.74-1.09,3.64-.57,.58,2.7,1.32,3.44,2.91,.41,3.44,1.32-.85,2.61-.57,3.64,2.31,1.79,2.31,2.86Z"/>
      <path class="cls-2" d="M18.63,8.45c-.35-.47-.76-.89-1.22-1.26,0,0-.01-.01-.02-.01,0,0,0,0,0,0-.46-.37-.96-.67-1.5-.92,0,0,0,0,0,0l-.11,.4h0s-.61,2.19-.61,2.19c0,0,0,0,0,0h0s-2.16,1.63-2.16,1.63h0s-2.17-1.63-2.17-1.63h0s-.61-2.19-.61-2.19l-.11-.4c-.54,.24-1.04,.55-1.5,.92,0,0,0,0,0,0,0,0-.01,.01-.02,.02-.2,.16-.39,.33-.57,.51-.23,.23-.45,.48-.65,.75-.89,1.18-1.42,2.65-1.42,4.24,0,3.89,3.16,7.05,7.05,7.05h0c1.95,0,3.71-.79,4.99-2.07,1.28-1.28,2.07-3.04,2.07-4.99,0-1.59-.53-3.06-1.42-4.24Zm-2.52,7.36c-.8,.8-1.9,1.29-3.12,1.29h0c-2.43,0-4.41-1.97-4.41-4.41,0-.99,.33-1.91,.88-2.65l2.05,1.55,1.46,1.1h0s1.46-1.1,1.46-1.1l2.06-1.55c.56,.74,.89,1.66,.89,2.65,0,1.22-.49,2.32-1.29,3.12Z"/>
    </g>
  </g>
</svg>