<?xml version="1.0" encoding="UTF-8"?>
<svg id="Layer_2" data-name="Layer 2" xmlns="http://www.w3.org/2000/svg" viewBox="0 0 26.12 26.12">
  <defs>
    <style>
      .cls-1 {
        fill: #fff;
      }

      .cls-2 {
        fill: #4095f8;
      }
    </style>
  </defs>
  <g id="Layer_1-2" data-name="Layer 1">
    <g>
      <path class="cls-2" d="M26.12,13.06c0,1.08-2.06,1.88-2.32,2.88s1.1,2.75,.58,3.65-2.71,.58-3.45,1.32-.41,2.92-1.32,3.45-2.62-.85-3.65-.58-1.79,2.32-2.88,2.32-1.88-2.06-2.88-2.32-2.75,1.1-3.65,.58-.58-2.71-1.32-3.45-2.92-.41-3.45-1.32,.85-2.62,.58-3.65-2.32-1.79-2.32-2.88,2.06-1.88,2.32-2.88-1.1-2.75-.58-3.65,2.71-.58,3.45-1.32,.41-2.92,1.32-3.45,2.62,.85,3.65,.58,1.79-2.32,2.88-2.32,1.88,2.06,2.88,2.32,2.75-1.1,3.65-.58,.58,2.71,1.32,3.45,2.92,.41,3.45,1.32-.85,2.62-.58,3.65,2.32,1.79,2.32,2.88Z"/>
      <path class="cls-1" d="M11.08,17.97l-3.47-3.92c-.41-.46-.36-1.17,.1-1.57l.21-.18c.46-.41,1.17-.36,1.57,.1l1.81,2.05,5.35-4.72c.46-.41,1.17-.36,1.57,.1l.18,.21c.41,.46,.36,1.17-.1,1.57l-7.22,6.38Z"/>
    </g>
  </g>
</svg>