<?xml version="1.0" encoding="UTF-8"?>
<svg id="Layer_2" data-name="Layer 2" xmlns="http://www.w3.org/2000/svg" viewBox="0 0 368.93 110.1">
  <defs>
    <style>
      .cls-1 {
        fill: #ec1655;
      }

      .cls-2 {
        fill: #fff;
      }

      .cls-3 {
        fill: #0cbac6;
      }
    </style>
  </defs>
  <g id="Layer_1-2" data-name="Layer 1">
    <g>
      <path d="M77.24,13.88h250.52c22.72,0,41.17,18.45,41.17,41.17h0c0,22.72-18.45,41.17-41.17,41.17H77.24c-2.76,0-5-2.24-5-5V18.88c0-2.76,2.24-5,5-5Z"/>
      <g>
        <path d="M55.05,107.4c-28.87,0-52.35-23.48-52.35-52.35S26.18,2.7,55.05,2.7s52.35,23.48,52.35,52.35-23.48,52.35-52.35,52.35Z"/>
        <path class="cls-2" d="M55.05,5.4c27.42,0,49.65,22.23,49.65,49.65s-22.23,49.65-49.65,49.65S5.4,82.47,5.4,55.05,27.63,5.4,55.05,5.4m0-5.4C24.7,0,0,24.7,0,55.05s24.7,55.05,55.05,55.05,55.05-24.7,55.05-55.05S85.41,0,55.05,0h0Z"/>
      </g>
      <g>
        <path class="cls-2" d="M42.43,72.36c.05,.05,.11,.1,.16,.15,.5,.35,.85,.85,1.33,1.23,1.47,1.18,3.13,1.83,5.03,1.94,4.5,.28,8.42-3.11,8.93-7.56,.02-.22,.02-.44,.02-.65,0-13.4,0-26.79,0-40.19q0-.9,.9-.9c2.04,0,4.07,0,6.11,0,.19,0,.39-.04,.56,.08,.01,.01,.02,.02,.04,.03,.1,.1,.13,.23,.15,.36,.78,3.61,2.68,6.49,5.66,8.67,.19,.14,.34,.31,.52,.45,.13,.11,.26,.22,.39,.33,.48,.27,.82,.71,1.24,1.06,1.65,1.37,3.51,2.32,5.58,2.85,.18,.05,.39,.04,.52,.22,0,.01,.02,.02,.03,.03,.12,.13,.1,.29,.1,.45,0,2.36,0,4.72,0,7.09,0,.54-.07,.57-.62,.57-1.73,0-3.43-.23-5.11-.62-2.89-.66-5.56-1.84-8.03-3.46-.13-.08-.27-.27-.4-.2-.17,.08-.08,.3-.08,.46,0,6.65,.02,13.3-.01,19.95-.03,4.65-1.51,8.81-4.55,12.35-3.23,3.76-7.34,5.95-12.27,6.55-3.8,.46-7.4-.22-10.83-1.91-.55-.27-1.08-.59-1.58-.96-.16-.14-.31-.28-.47-.41-1.18-.97-2-2.23-2.77-3.53-1.18-1.99-1.94-4.14-2.32-6.42-.21-1.31-.32-2.62-.25-3.94,.23-4.26,1.66-8.06,4.41-11.34,2.3-2.76,5.18-4.68,8.57-5.84,1.41-.48,2.87-.78,4.37-.89,.28-.02,.55-.09,.83-.07,.13,0,.27,0,.38,.09,.01,.01,.03,.02,.04,.03,.08,.13,.06,.28,.06,.43,0,2.4,0,4.79,0,7.19,0,.08,0,.17,0,.25-.01,.24-.13,.32-.36,.26-.66-.19-1.33-.27-2.01-.31-1.05-.06-2.09,.09-3.07,.46-3.29,1.22-5.29,3.58-5.71,7.05-.41,3.43,.94,6.17,3.79,8.14,.24,.17,.48,.32,.71,.51Z"/>
        <path class="cls-1" d="M36.23,80.72c.13-.03,.2,.07,.29,.12,2.14,1.31,4.45,2.16,6.93,2.56,1.25,.2,2.5,.28,3.76,.22,4.22-.22,7.99-1.62,11.25-4.32,3.14-2.59,5.23-5.87,6.27-9.81,.33-1.24,.51-2.51,.58-3.79,.04-.74,.03-1.48,.03-2.22,0-6.34,0-12.67,0-19.01v-.43c.17-.04,.24,.08,.33,.14,2.26,1.54,4.7,2.69,7.34,3.41,1.45,.4,2.92,.66,4.42,.8,.63,.06,1.26,.05,1.89,.09,.28,.02,.28,0,.28-.28,0-.3,0-.61,0-.91,0-2.14,0-4.29,0-6.43,0-.13,0-.27,.01-.4,.56,.06,1.12,.19,1.69,.23,.35,.03,.7,.06,1.05,.05,.17,0,.25,.06,.23,.23,0,.07,0,.15,0,.22v9.3c0,.06,0,.12,0,.18,0,.27,0,.28-.29,.27-.97,0-1.94-.07-2.9-.19-1.96-.26-3.87-.74-5.72-1.46-1.77-.69-3.43-1.57-4.99-2.64-.1-.07-.2-.13-.35-.22v.43c0,6.77,0,13.54,0,20.32,0,3.61-.94,6.96-2.86,10.02-2.33,3.69-5.55,6.29-9.66,7.78-2.49,.91-5.07,1.25-7.71,1.06-4.47-.33-8.33-2.03-11.62-5.06-.09-.08-.16-.18-.24-.27Z"/>
        <path class="cls-3" d="M65.47,26.47c-.13,0-.27,.02-.4,.02-2.18,0-4.36,0-6.54,0q-.51,0-.51,.49c0,13.33,0,26.65,0,39.98,0,.93-.07,1.84-.36,2.72-1.02,3.12-3.12,5.17-6.31,5.9-3.43,.78-6.34-.26-8.66-2.92-.04-.04-.06-.1-.1-.15,.66,.26,1.32,.53,2.03,.67,2.24,.44,4.34,.1,6.28-1.1,2.24-1.38,3.56-3.4,4.03-5.99,.09-.49,.1-.99,.1-1.48,0-13.35,0-26.7,0-40.06,0-.62-.09-.54,.53-.54,3.08,0,6.16,0,9.24,0,.07,0,.15,0,.22,0,.32,0,.32,0,.32,.32,0,.71-.01,1.43,.13,2.13Z"/>
        <path class="cls-3" d="M48.99,48.36c-1.88,.06-3.72,.36-5.51,.96-2.58,.86-4.88,2.2-6.88,4.05-2.63,2.42-4.42,5.36-5.4,8.79-.35,1.22-.55,2.47-.64,3.74-.05,.76-.07,1.53-.03,2.29,.11,2.11,.55,4.16,1.35,6.13,.9,2.2,2.16,4.16,3.79,5.88,.03,.03,.05,.08,.08,.12-.37-.16-.67-.43-.98-.68-3.05-2.42-5.21-5.47-6.39-9.19-.41-1.29-.67-2.62-.79-3.98-.09-.98-.1-1.96-.04-2.94,.15-2.25,.68-4.42,1.61-6.48,.97-2.15,2.3-4.07,3.99-5.72,1.96-1.92,4.24-3.37,6.83-4.3,1.63-.58,3.3-.94,5.02-1.07,1.25-.09,2.49-.06,3.73,.08,.17,.02,.27,.05,.26,.25-.01,.69-.01,1.38-.02,2.07Z"/>
        <path class="cls-1" d="M42.43,72.36c-.76-.34-1.41-.84-2.01-1.41-1.49-1.44-2.38-3.19-2.61-5.25-.48-4.32,2.24-8.06,6.03-9.21,1.62-.49,3.23-.51,4.86-.07,.09,.02,.18,.06,.28,.04,.05-.13,.03-.26,.03-.4,0-2.42,0-4.85,0-7.27,0-.13,.01-.26,.02-.4,.93-.06,1.86,.02,2.79,.12,.15,.02,.18,.08,.18,.21,0,.07,0,.15,0,.22,0,3.21,0,6.42,0,9.63,0,.12,.03,.24-.04,.37-.42-.08-.84-.21-1.27-.27-2.48-.35-4.72,.23-6.68,1.78-1.73,1.36-2.79,3.15-3.14,5.31-.38,2.3,.1,4.42,1.42,6.35,.05,.08,.1,.16,.15,.24Z"/>
        <path class="cls-1" d="M71.84,35.97c-.93-.55-1.75-1.25-2.5-2.02-2.02-2.08-3.29-4.54-3.83-7.38,0-.02,0-.05,0-.07,.87-.05,1.74,0,2.61-.02,.15,0,.22,.06,.21,.21,0,.06,0,.12,0,.18-.04,2.44,.68,4.67,1.87,6.77,.42,.75,.93,1.44,1.49,2.1,.06,.07,.15,.13,.16,.24Z"/>
        <path class="cls-3" d="M79.58,40.43c-2.48-.53-4.67-1.65-6.56-3.33-.28-.25-.57-.49-.79-.8,.09,0,.16,.05,.23,.09,1.5,.86,3.11,1.43,4.82,1.71,.67,.11,1.34,.18,2.02,.18,.28,0,.29,0,.29,.28,0,.63,0,1.25-.01,1.88Z"/>
      </g>
      <g>
        <path class="cls-2" d="M157.46,62.91h2.67c-.89,2.19-2.27,3.89-4.16,5.09-1.88,1.2-4.19,1.8-6.92,1.8s-5.13-.55-7.06-1.64c-1.93-1.09-3.43-2.69-4.5-4.8-1.07-2.11-1.61-4.65-1.61-7.61s.59-5.76,1.76-8.18c1.18-2.42,2.72-4.23,4.62-5.43,1.91-1.2,4.07-1.8,6.49-1.8,2.08,0,3.92,.48,5.53,1.45s2.88,2.36,3.8,4.17c.93,1.81,1.39,3.88,1.39,6.2,0,2.67-.7,5.09-2.1,7.27-1.63,2.52-3.7,3.78-6.23,3.78-.68,0-1.19-.14-1.55-.41s-.6-.72-.74-1.33c-.98,1.17-2.12,1.75-3.42,1.75s-2.5-.57-3.44-1.72-1.41-2.7-1.41-4.68,.36-3.76,1.09-5.44c.73-1.69,1.58-2.91,2.56-3.66,.98-.75,2.04-1.13,3.17-1.13,.75,0,1.4,.17,1.95,.52s1.01,.87,1.36,1.56l.31-1.7h3.31l-1.89,10.99c-.12,.71-.18,1.17-.18,1.38,0,.23,.05,.42,.15,.54,.1,.13,.21,.19,.34,.19,.39,0,.9-.28,1.53-.86,.85-.76,1.54-1.79,2.09-3.11,.54-1.32,.81-2.68,.81-4.09,0-1.72-.37-3.27-1.11-4.67-.74-1.4-1.72-2.44-2.94-3.14s-2.7-1.05-4.44-1.05c-2.07,0-3.87,.49-5.41,1.47-1.54,.98-2.78,2.47-3.73,4.49-.95,2.02-1.42,4.32-1.42,6.92,0,2.22,.44,4.18,1.33,5.88s2.11,2.97,3.65,3.83c1.54,.85,3.43,1.28,5.66,1.28,2,0,3.73-.34,5.17-1.02,1.44-.68,2.6-1.7,3.48-3.06Zm-13.59-6.32c0,1.32,.22,2.28,.66,2.88,.44,.6,.99,.91,1.64,.91,.57,0,1.1-.22,1.58-.65,.62-.55,1.16-1.49,1.62-2.82,.46-1.33,.68-2.67,.68-4.02,0-1.15-.23-2.04-.68-2.65s-1-.92-1.64-.92c-1.03,0-1.87,.58-2.51,1.75-.9,1.64-1.35,3.48-1.35,5.52Z"/>
        <path class="cls-2" d="M161.81,46.9h3.25v2.22c.58-.87,1.22-1.52,1.92-1.95s1.45-.65,2.25-.65c.86,0,1.6,.21,2.23,.65,.63,.43,1.14,1.08,1.54,1.95,.59-.87,1.23-1.52,1.91-1.95,.68-.43,1.4-.65,2.17-.65,.91,0,1.69,.22,2.35,.65,.66,.44,1.16,1.06,1.5,1.87,.34,.81,.51,2.05,.51,3.73v10.42h-3.54v-9.32c0-1.63-.14-2.71-.43-3.25-.29-.54-.77-.81-1.44-.81-.79,0-1.42,.38-1.9,1.13-.48,.75-.72,2.22-.72,4.41v7.83h-3.54v-8.93c0-1.77-.1-2.91-.29-3.42-.26-.68-.77-1.01-1.55-1.01-.52,0-1,.17-1.44,.52-.44,.35-.76,.86-.95,1.53s-.29,1.8-.29,3.4v7.92h-3.54v-16.29Z"/>
        <path class="cls-2" d="M193.74,63.19v-2.44c-.49,.88-1.13,1.58-1.93,2.07s-1.63,.75-2.5,.75-1.66-.23-2.36-.69c-.69-.46-1.21-1.11-1.55-1.96-.34-.85-.51-2.08-.51-3.7v-10.31h3.54v7.48c0,2.14,.05,3.49,.16,4.07,.11,.58,.34,1.02,.71,1.34,.37,.32,.81,.47,1.33,.47,.59,0,1.14-.21,1.64-.62,.5-.41,.83-.95,.99-1.59s.24-2.08,.24-4.29v-6.87h3.54v16.29h-3.3Z"/>
        <path class="cls-2" d="M200.59,63.19v-22.48h3.54v11.91l4.13-5.72h4.36l-4.57,5.96,4.89,10.33h-3.8l-3.39-7.33-1.62,2.12v5.21h-3.54Z"/>
        <path class="cls-2" d="M218.56,40.7v8.25c.56-.82,1.18-1.43,1.86-1.83,.68-.4,1.42-.61,2.22-.61,1.06,0,1.95,.28,2.67,.85,.72,.56,1.23,1.36,1.53,2.39,.22,.76,.34,2.05,.34,3.87v9.56h-3.54v-8.61c0-2-.13-3.24-.38-3.75-.36-.68-.96-1.01-1.82-1.01-.91,0-1.61,.37-2.12,1.1-.5,.73-.76,2.1-.76,4.11v8.17h-3.54v-22.48h3.54Z"/>
        <path class="cls-2" d="M230.77,63.19v-22.48h3.54v22.48h-3.54Z"/>
        <path class="cls-2" d="M237.93,44.69v-3.99h3.54v3.99h-3.54Zm0,18.49v-16.29h3.54v16.29h-3.54Z"/>
        <path class="cls-2" d="M243.85,58.55l3.54-.66c.31,1.71,1.26,2.56,2.85,2.56,.85,0,1.48-.16,1.9-.49s.63-.75,.63-1.27c0-.36-.09-.64-.28-.84-.19-.2-.58-.38-1.15-.54-2.9-.77-4.74-1.5-5.53-2.2-.98-.87-1.47-2.06-1.47-3.58s.48-2.73,1.44-3.64c.96-.91,2.36-1.37,4.19-1.37s3.08,.34,3.99,1.02c.91,.68,1.55,1.78,1.92,3.29l-3.33,.75c-.3-1.31-1.14-1.96-2.52-1.96-.87,0-1.49,.12-1.86,.38s-.55,.58-.55,.98c0,.36,.17,.66,.51,.89,.34,.25,1.38,.62,3.14,1.11,1.97,.56,3.31,1.23,4.02,2.02,.7,.79,1.04,1.84,1.04,3.14,0,1.58-.54,2.87-1.62,3.9s-2.57,1.53-4.47,1.53c-1.73,0-3.14-.43-4.23-1.28-1.09-.85-1.81-2.1-2.16-3.74Z"/>
        <path class="cls-2" d="M259.14,46.9h3.25v2.22c.58-.87,1.22-1.52,1.92-1.95s1.45-.65,2.25-.65c.86,0,1.6,.21,2.23,.65,.63,.43,1.14,1.08,1.54,1.95,.59-.87,1.23-1.52,1.91-1.95,.68-.43,1.4-.65,2.17-.65,.91,0,1.69,.22,2.35,.65,.66,.44,1.16,1.06,1.5,1.87,.34,.81,.51,2.05,.51,3.73v10.42h-3.54v-9.32c0-1.63-.14-2.71-.43-3.25-.29-.54-.77-.81-1.44-.81-.79,0-1.42,.38-1.9,1.13-.48,.75-.72,2.22-.72,4.41v7.83h-3.54v-8.93c0-1.77-.1-2.91-.29-3.42-.26-.68-.77-1.01-1.55-1.01-.52,0-1,.17-1.44,.52-.44,.35-.76,.86-.95,1.53s-.29,1.8-.29,3.4v7.92h-3.54v-16.29Z"/>
        <path class="cls-2" d="M285.78,46.9v15.78c0,2.22-.12,3.74-.37,4.55-.25,.82-.69,1.45-1.32,1.89s-1.42,.67-2.35,.67c-.71,0-1.52-.15-2.45-.46l.61-3.68c.34,.09,.63,.14,.87,.14,.61,0,1.04-.25,1.27-.74,.12-.27,.18-1.14,.18-2.62v-15.54h3.54Zm-3.54-2.21v-3.99h3.54v3.99h-3.54Z"/>
        <path class="cls-2" d="M292.11,51.85l-3.2-.7c.39-1.65,1.03-2.83,1.92-3.55s2.18-1.08,3.86-1.08c1.49,0,2.63,.21,3.42,.63,.79,.42,1.35,.99,1.69,1.71s.51,2.03,.51,3.94l-.03,5.03c0,1.41,.06,2.46,.17,3.15s.32,1.43,.63,2.2h-3.5l-.46-1.78c-.6,.72-1.25,1.26-1.94,1.62-.69,.36-1.42,.54-2.2,.54-1.3,0-2.36-.44-3.19-1.31s-1.24-2.04-1.24-3.49c0-.92,.17-1.73,.51-2.41,.34-.69,.81-1.23,1.43-1.64s1.6-.77,2.94-1.09c1.64-.38,2.78-.73,3.42-1.06,0-.9-.06-1.5-.19-1.78-.13-.28-.36-.51-.71-.69-.34-.18-.83-.27-1.45-.27s-1.13,.14-1.5,.43-.66,.82-.88,1.61Zm4.72,3.51c-.45,.18-1.15,.4-2.1,.65-1.09,.29-1.81,.61-2.15,.95s-.51,.8-.51,1.35c0,.63,.19,1.15,.56,1.58s.84,.64,1.4,.64c.5,0,1-.17,1.49-.52,.49-.34,.83-.75,1.02-1.22s.28-1.33,.28-2.57v-.86Z"/>
        <path class="cls-2" d="M303.79,63.19v-22.48h3.54v22.48h-3.54Z"/>
        <path class="cls-2" d="M310.96,44.69v-3.99h3.54v3.99h-3.54Zm0,18.49v-16.29h3.54v16.29h-3.54Z"/>
        <path class="cls-2" d="M318.12,63.19v-22.48h3.54v22.48h-3.54Z"/>
      </g>
    </g>
  </g>
</svg>