<?xml version="1.0" encoding="UTF-8"?>
<svg id="Layer_2" data-name="Layer 2" xmlns="http://www.w3.org/2000/svg" viewBox="0 0 899.32 899.32">
  <defs>
    <style>
      .cls-1 {
        fill: #ffdee1;
      }

      .cls-2 {
        fill: #fff;
      }

      .cls-3 {
        fill: #ff6161;
      }
    </style>
  </defs>
  <g id="Layer_1-2" data-name="Layer 1">
    <g>
      <path class="cls-1" d="M449.66,899.32c-60.67,0-119.56-11.9-175.06-35.37-53.56-22.65-101.64-55.06-142.9-96.33-41.27-41.27-73.68-89.35-96.33-142.9C11.9,569.22,0,510.33,0,449.66s11.9-119.56,35.37-175.05c22.65-53.56,55.06-101.64,96.33-142.9,41.27-41.27,89.35-73.68,142.9-96.33C330.1,11.9,389,0,449.66,0s119.56,11.9,175.05,35.37c53.56,22.65,101.64,55.06,142.9,96.33,41.27,41.27,73.68,89.35,96.33,142.9,23.47,55.49,35.37,114.39,35.37,175.05s-11.9,119.56-35.37,175.06c-22.65,53.56-55.06,101.64-96.33,142.9-41.27,41.27-89.35,73.68-142.9,96.33-55.49,23.47-114.39,35.37-175.05,35.37Z"/>
      <circle class="cls-3" cx="449.66" cy="449.66" r="362.66"/>
      <path class="cls-2" d="M626.98,306.45c-11.12-14.75-24.03-28.06-38.42-39.61-.19-.16-.39-.31-.58-.47-.03-.02-.05-.05-.08-.06-14.42-11.5-30.31-21.24-47.33-28.89-.02,.01-.03,.03-.03,.05l-3.51,12.63v.02l-19.21,69s.03,.01,.05,.03l-.07,.05-68.13,51.29-.07,.06-68.22-51.35h0s-19.23-69.08-19.23-69.08l-3.51-12.65c-17.01,7.67-32.89,17.41-47.3,28.92-.02,.01-.03,.02-.05,.04-.2,.15-.41,.31-.61,.48-6.27,5.05-12.26,10.42-17.95,16.11-7.34,7.34-14.17,15.2-20.43,23.5-27.98,37.13-44.58,83.35-44.58,133.44,0,122.58,99.37,221.95,221.95,221.95h.01c61.29,0,116.78-24.84,156.94-65.01,40.16-40.16,65.01-95.65,65.01-156.94,0-50.12-16.62-96.36-44.63-133.51Zm-79.23,231.59c-25.11,25.1-59.79,40.63-98.09,40.63h-.01c-76.61,0-138.72-62.1-138.72-138.72,0-31.29,10.36-60.16,27.84-83.37l64.67,48.68,46.07,34.69h.13s46.05-34.68,46.05-34.68l64.77-48.76c17.52,23.22,27.9,52.12,27.9,83.44,0,38.31-15.53,72.99-40.63,98.09Z"/>
    </g>
  </g>
</svg>