<?xml version="1.0" encoding="UTF-8"?>
<svg id="Layer_2" data-name="Layer 2" xmlns="http://www.w3.org/2000/svg" viewBox="0 0 93.26 93.26">
  <defs>
    <style>
      .cls-1 {
        fill: #0095f6;
      }

      .cls-2 {
        fill: #fff;
      }

      .cls-3 {
        fill: #98d6fd;
      }
    </style>
  </defs>
  <g id="Layer_1-2" data-name="Layer 1">
    <g>
      <path class="cls-3" d="M46.63,93.26C20.92,93.26,0,72.34,0,46.63S20.92,0,46.63,0s46.63,20.92,46.63,46.63-20.92,46.63-46.63,46.63Z"/>
      <circle class="cls-1" cx="46.63" cy="46.63" r="39.28"/>
      <path class="cls-2" d="M68.54,28.94c-1.37-1.82-2.97-3.47-4.75-4.89-.02-.02-.05-.04-.07-.06,0,0,0,0-.01,0-1.78-1.42-3.74-2.62-5.85-3.57,0,0,0,0,0,0l-.43,1.56h0s-2.37,8.53-2.37,8.53c0,0,0,0,0,0h0s-8.42,6.34-8.42,6.34h0s-8.43-6.34-8.43-6.34h0s-2.38-8.53-2.38-8.53l-.43-1.56c-2.1,.95-4.06,2.15-5.84,3.57,0,0,0,0,0,0-.03,.02-.05,.04-.08,.06-.77,.62-1.51,1.29-2.22,1.99-.91,.91-1.75,1.88-2.52,2.9-3.46,4.59-5.51,10.3-5.51,16.48,0,15.14,12.28,27.42,27.42,27.42h0c7.57,0,14.43-3.07,19.39-8.03,4.96-4.96,8.03-11.82,8.03-19.39,0-6.19-2.05-11.9-5.51-16.49Zm-9.79,28.61c-3.1,3.1-7.39,5.02-12.12,5.02h0c-9.46,0-17.14-7.67-17.14-17.14,0-3.87,1.28-7.43,3.44-10.3l7.99,6.01,5.69,4.28h.02s5.69-4.28,5.69-4.28l8-6.02c2.16,2.87,3.45,6.44,3.45,10.31,0,4.73-1.92,9.02-5.02,12.12Z"/>
    </g>
  </g>
</svg>