<?xml version="1.0" encoding="UTF-8"?>
<svg id="Layer_2" data-name="Layer 2" xmlns="http://www.w3.org/2000/svg" viewBox="0 0 368.93 110.1">
  <defs>
    <style>
      .cls-1 {
        fill: #fff;
      }

      .cls-2 {
        fill: #547ec0;
      }
    </style>
  </defs>
  <g id="Layer_1-2" data-name="Layer 1">
    <g>
      <path class="cls-2" d="M77.24,13.88h250.52c22.72,0,41.17,18.45,41.17,41.17h0c0,22.72-18.45,41.17-41.17,41.17H77.24c-2.76,0-5-2.24-5-5V18.88c0-2.76,2.24-5,5-5Z"/>
      <g>
        <path class="cls-2" d="M55.05,107.4c-28.87,0-52.35-23.48-52.35-52.35S26.18,2.7,55.05,2.7s52.35,23.48,52.35,52.35-23.48,52.35-52.35,52.35Z"/>
        <path class="cls-1" d="M55.05,5.4c27.42,0,49.65,22.23,49.65,49.65s-22.23,49.65-49.65,49.65S5.4,82.47,5.4,55.05,27.63,5.4,55.05,5.4m0-5.4C24.7,0,0,24.7,0,55.05s24.7,55.05,55.05,55.05,55.05-24.7,55.05-55.05S85.41,0,55.05,0h0Z"/>
      </g>
      <path class="cls-1" d="M74.03,69.15l2.16-14.09h-13.52v-9.15c0-3.86,1.89-7.61,7.95-7.61h6.15v-12s-5.58-.95-10.91-.95c-11.14,0-18.42,6.75-18.42,18.97v10.74h-12.38v14.09h12.38v34.07c2.48,.39,5.03,.59,7.62,.59s5.14-.2,7.62-.59v-34.07h11.36Z"/>
      <g>
        <path class="cls-1" d="M157.46,62.91h2.67c-.89,2.19-2.27,3.89-4.16,5.09-1.88,1.2-4.19,1.8-6.92,1.8s-5.13-.54-7.06-1.64c-1.93-1.09-3.43-2.7-4.5-4.81-1.07-2.11-1.61-4.65-1.61-7.61s.59-5.76,1.76-8.18c1.18-2.42,2.72-4.23,4.62-5.43s4.07-1.8,6.49-1.8c2.08,0,3.92,.48,5.53,1.45,1.61,.96,2.88,2.36,3.8,4.17,.93,1.81,1.39,3.88,1.39,6.2,0,2.67-.7,5.09-2.1,7.27-1.63,2.52-3.7,3.78-6.23,3.78-.68,0-1.19-.14-1.55-.41-.36-.27-.6-.72-.74-1.33-.98,1.16-2.12,1.75-3.42,1.75s-2.5-.57-3.44-1.72c-.94-1.15-1.41-2.7-1.41-4.68s.36-3.75,1.09-5.44,1.58-2.91,2.56-3.66c.98-.75,2.04-1.13,3.17-1.13,.75,0,1.4,.17,1.95,.52s1.01,.87,1.36,1.56l.31-1.7h3.31l-1.89,10.99c-.12,.71-.18,1.17-.18,1.38,0,.24,.05,.42,.15,.54,.1,.13,.21,.19,.34,.19,.39,0,.9-.28,1.53-.86,.85-.76,1.54-1.79,2.09-3.11,.54-1.32,.81-2.69,.81-4.1,0-1.72-.37-3.27-1.11-4.67-.74-1.4-1.72-2.44-2.94-3.14s-2.7-1.05-4.44-1.05c-2.07,0-3.87,.49-5.41,1.47-1.54,.98-2.78,2.47-3.73,4.49-.95,2.02-1.42,4.32-1.42,6.92,0,2.22,.44,4.18,1.33,5.88s2.11,2.97,3.65,3.83c1.54,.85,3.43,1.28,5.66,1.28,2,0,3.73-.34,5.17-1.02s2.6-1.7,3.48-3.06Zm-13.59-6.32c0,1.32,.22,2.28,.66,2.88,.44,.6,.99,.9,1.64,.9,.57,0,1.1-.21,1.58-.64,.62-.55,1.16-1.49,1.62-2.82,.46-1.33,.68-2.67,.68-4.02,0-1.15-.23-2.04-.68-2.65-.45-.62-1-.92-1.64-.92-1.03,0-1.87,.58-2.51,1.75-.9,1.64-1.35,3.48-1.35,5.52Z"/>
        <path class="cls-1" d="M161.81,46.9h3.25v2.22c.58-.87,1.22-1.52,1.92-1.95,.7-.43,1.45-.65,2.25-.65,.86,0,1.6,.21,2.23,.64,.63,.43,1.14,1.08,1.54,1.95,.59-.87,1.23-1.52,1.91-1.95,.68-.43,1.4-.64,2.17-.64,.91,0,1.69,.22,2.35,.65,.66,.44,1.16,1.06,1.5,1.87,.34,.81,.51,2.05,.51,3.73v10.42h-3.54v-9.32c0-1.63-.14-2.71-.43-3.25-.29-.54-.77-.81-1.44-.81-.79,0-1.42,.38-1.9,1.13-.48,.75-.72,2.22-.72,4.41v7.83h-3.54v-8.93c0-1.77-.1-2.91-.29-3.42-.26-.68-.77-1.01-1.55-1.01-.52,0-1,.17-1.44,.52-.44,.35-.76,.86-.95,1.53-.19,.67-.29,1.8-.29,3.4v7.92h-3.54v-16.28Z"/>
        <path class="cls-1" d="M193.74,63.18v-2.44c-.49,.89-1.13,1.58-1.93,2.07-.8,.5-1.63,.75-2.5,.75s-1.66-.23-2.36-.69c-.69-.46-1.21-1.11-1.55-1.97s-.51-2.08-.51-3.7v-10.31h3.54v7.48c0,2.13,.05,3.49,.16,4.07,.11,.58,.34,1.02,.71,1.34,.37,.32,.81,.47,1.33,.47,.59,0,1.14-.2,1.64-.62s.83-.95,.99-1.6c.16-.65,.24-2.08,.24-4.29v-6.87h3.54v16.28h-3.3Z"/>
        <path class="cls-1" d="M200.59,63.18v-22.48h3.54v11.91l4.13-5.72h4.36l-4.57,5.96,4.89,10.33h-3.8l-3.39-7.33-1.62,2.12v5.21h-3.54Z"/>
        <path class="cls-1" d="M218.56,40.7v8.25c.56-.82,1.18-1.43,1.86-1.83,.68-.4,1.42-.6,2.22-.6,1.06,0,1.95,.28,2.67,.84s1.23,1.36,1.53,2.39c.22,.76,.34,2.05,.34,3.87v9.56h-3.54v-8.61c0-1.99-.13-3.24-.38-3.74-.36-.68-.96-1.01-1.82-1.01-.91,0-1.61,.37-2.12,1.1s-.76,2.1-.76,4.11v8.17h-3.54v-22.48h3.54Z"/>
        <path class="cls-1" d="M230.77,63.18v-22.48h3.54v22.48h-3.54Z"/>
        <path class="cls-1" d="M237.93,44.69v-3.99h3.54v3.99h-3.54Zm0,18.49v-16.28h3.54v16.28h-3.54Z"/>
        <path class="cls-1" d="M243.85,58.55l3.54-.66c.31,1.71,1.26,2.56,2.85,2.56,.85,0,1.48-.17,1.9-.49s.63-.75,.63-1.27c0-.36-.09-.64-.28-.84-.19-.2-.58-.38-1.15-.54-2.9-.77-4.74-1.5-5.53-2.2-.98-.87-1.47-2.06-1.47-3.58s.48-2.73,1.44-3.64,2.36-1.37,4.19-1.37,3.08,.34,3.99,1.02c.91,.68,1.55,1.78,1.92,3.29l-3.33,.75c-.3-1.31-1.14-1.96-2.52-1.96-.87,0-1.49,.13-1.86,.38-.37,.25-.55,.58-.55,.98,0,.36,.17,.65,.51,.89,.34,.25,1.38,.62,3.14,1.11,1.97,.56,3.31,1.23,4.02,2.02,.7,.79,1.04,1.84,1.04,3.14,0,1.58-.54,2.88-1.62,3.9s-2.57,1.53-4.47,1.53c-1.73,0-3.14-.43-4.23-1.28-1.09-.85-1.81-2.1-2.16-3.73Z"/>
        <path class="cls-1" d="M259.14,46.9h3.25v2.22c.58-.87,1.22-1.52,1.92-1.95,.7-.43,1.45-.65,2.25-.65,.86,0,1.6,.21,2.23,.64,.63,.43,1.14,1.08,1.54,1.95,.59-.87,1.23-1.52,1.91-1.95,.68-.43,1.4-.64,2.17-.64,.91,0,1.69,.22,2.35,.65,.66,.44,1.16,1.06,1.5,1.87,.34,.81,.51,2.05,.51,3.73v10.42h-3.54v-9.32c0-1.63-.14-2.71-.43-3.25-.29-.54-.77-.81-1.44-.81-.79,0-1.42,.38-1.9,1.13-.48,.75-.72,2.22-.72,4.41v7.83h-3.54v-8.93c0-1.77-.1-2.91-.29-3.42-.26-.68-.77-1.01-1.55-1.01-.52,0-1,.17-1.44,.52-.44,.35-.76,.86-.95,1.53-.19,.67-.29,1.8-.29,3.4v7.92h-3.54v-16.28Z"/>
        <path class="cls-1" d="M285.78,46.9v15.78c0,2.22-.12,3.74-.37,4.56-.25,.82-.69,1.45-1.32,1.89-.63,.45-1.42,.67-2.35,.67-.71,0-1.52-.15-2.45-.46l.61-3.68c.34,.09,.63,.14,.87,.14,.61,0,1.04-.25,1.27-.74,.12-.26,.18-1.14,.18-2.62v-15.54h3.54Zm-3.54-2.21v-3.99h3.54v3.99h-3.54Z"/>
        <path class="cls-1" d="M292.11,51.85l-3.2-.71c.39-1.65,1.03-2.83,1.92-3.55s2.18-1.08,3.86-1.08c1.49,0,2.63,.21,3.42,.63s1.35,.99,1.69,1.71,.51,2.03,.51,3.94l-.03,5.03c0,1.41,.06,2.46,.17,3.15,.11,.69,.32,1.42,.63,2.2h-3.5l-.46-1.78c-.6,.72-1.25,1.26-1.94,1.62-.69,.37-1.42,.54-2.2,.54-1.3,0-2.36-.44-3.19-1.31s-1.24-2.04-1.24-3.49c0-.92,.17-1.73,.51-2.41,.34-.69,.81-1.23,1.43-1.64,.61-.41,1.6-.77,2.94-1.09,1.64-.38,2.78-.73,3.42-1.06,0-.9-.06-1.5-.19-1.78-.13-.28-.36-.51-.71-.69-.34-.18-.83-.27-1.45-.27s-1.13,.14-1.5,.43c-.36,.28-.66,.82-.88,1.61Zm4.72,3.51c-.45,.18-1.15,.4-2.1,.64-1.09,.29-1.81,.61-2.15,.96s-.51,.8-.51,1.35c0,.63,.19,1.15,.56,1.58s.84,.64,1.4,.64c.5,0,1-.17,1.49-.52s.83-.75,1.02-1.22,.28-1.33,.28-2.57v-.86Z"/>
        <path class="cls-1" d="M303.79,63.18v-22.48h3.54v22.48h-3.54Z"/>
        <path class="cls-1" d="M310.96,44.69v-3.99h3.54v3.99h-3.54Zm0,18.49v-16.28h3.54v16.28h-3.54Z"/>
        <path class="cls-1" d="M318.12,63.18v-22.48h3.54v22.48h-3.54Z"/>
      </g>
    </g>
  </g>
</svg>