<?xml version="1.0" encoding="UTF-8"?>
<svg id="Layer_2" data-name="Layer 2" xmlns="http://www.w3.org/2000/svg" xmlns:xlink="http://www.w3.org/1999/xlink" viewBox="0 0 368.93 110.1">
  <defs>
    <style>
      .cls-1 {
        fill: none;
      }

      .cls-2 {
        clip-path: url(#clippath);
      }

      .cls-3, .cls-4 {
        fill: #fff;
      }

      .cls-5 {
        fill: #31a745;
      }

      .cls-6 {
        fill: #31a846;
      }

      .cls-7 {
        fill: #32aa47;
      }

      .cls-8 {
        fill: #32a946;
      }

      .cls-9 {
        fill: #40c759;
      }

      .cls-10 {
        fill: #40c658;
      }

      .cls-11 {
        fill: #41c95a;
      }

      .cls-12 {
        fill: #41c859;
      }

      .cls-13 {
        fill: #3ec256;
      }

      .cls-14 {
        fill: #3ec356;
      }

      .cls-15 {
        fill: #3fc457;
      }

      .cls-16 {
        fill: #3fc557;
      }

      .cls-17 {
        fill: #34ad49;
      }

      .cls-18 {
        fill: #34ae49;
      }

      .cls-19 {
        fill: #35b04b;
      }

      .cls-20 {
        fill: #42cb5b;
      }

      .cls-21 {
        fill: #42ca5a;
      }

      .cls-22 {
        fill: #35af4a;
      }

      .cls-23 {
        fill: #3cbd52;
      }

      .cls-24 {
        fill: #3cbe53;
      }

      .cls-25 {
        fill: #3dc155;
      }

      .cls-26 {
        fill: #3dc054;
      }

      .cls-27 {
        fill: #3dbf54;
      }

      .cls-28 {
        fill: #44cf5d;
      }

      .cls-29 {
        fill: #51eb6e;
      }

      .cls-30 {
        fill: #51ea6d;
      }

      .cls-31 {
        fill: #44d05e;
      }

      .cls-32 {
        fill: #45d15e;
      }

      .cls-33 {
        fill: #53ef71;
      }

      .cls-34 {
        fill: #53ee70;
      }

      .cls-35 {
        fill: #54f172;
      }

      .cls-36 {
        fill: #54f071;
      }

      .cls-37 {
        fill: #48d762;
      }

      .cls-38 {
        fill: #48d862;
      }

      .cls-39 {
        fill: #36b14b;
      }

      .cls-40 {
        fill: #36b24c;
      }

      .cls-41 {
        fill: #38b64e;
      }

      .cls-42 {
        fill: #38b54e;
      }

      .cls-43 {
        fill: #33ac48;
      }

      .cls-44 {
        fill: #39b74f;
      }

      .cls-45 {
        fill: #39b84f;
      }

      .cls-46 {
        fill: #33ab47;
      }

      .cls-47 {
        fill: #3bbc52;
      }

      .cls-48 {
        fill: #3bbb51;
      }

      .cls-49 {
        fill: #55f373;
      }

      .cls-50 {
        fill: #37b34c;
      }

      .cls-51 {
        fill: #37b44d;
      }

      .cls-52 {
        fill: #55f272;
      }

      .cls-53 {
        fill: #3aba51;
      }

      .cls-54 {
        fill: #3ab950;
      }

      .cls-55 {
        fill: #49db64;
      }

      .cls-56 {
        fill: #49da64;
      }

      .cls-57 {
        fill: #49d963;
      }

      .cls-58 {
        fill: #47d561;
      }

      .cls-59 {
        fill: #47d661;
      }

      .cls-60 {
        fill: #52ec6f;
      }

      .cls-61 {
        fill: #52ed6f;
      }

      .cls-62 {
        fill: #4add66;
      }

      .cls-63 {
        fill: #4adc65;
      }

      .cls-64 {
        fill: #45d25f;
      }

      .cls-65 {
        fill: #50e96d;
      }

      .cls-66 {
        fill: #50e86c;
      }

      .cls-67 {
        fill: #4ee56a;
      }

      .cls-68 {
        fill: #4ee46a;
      }

      .cls-69 {
        fill: #4de369;
      }

      .cls-70 {
        fill: #4de269;
      }

      .cls-71 {
        fill: #4bde66;
      }

      .cls-72 {
        fill: #4bdf67;
      }

      .cls-73 {
        fill: #46d35f;
      }

      .cls-74 {
        fill: #46d460;
      }

      .cls-75 {
        fill: #4fe66b;
      }

      .cls-76 {
        fill: #4fe76c;
      }

      .cls-77 {
        fill: #4ce168;
      }

      .cls-78 {
        fill: #4ce067;
      }

      .cls-79 {
        fill: #43ce5c;
      }

      .cls-80 {
        fill: #43cc5c;
      }

      .cls-81 {
        clip-path: url(#clippath-1);
      }

      .cls-4 {
        fill-rule: evenodd;
      }
    </style>
    <clipPath id="clippath">
      <path class="cls-1" d="M72.24,13.88h255.52c22.72,0,41.17,18.45,41.17,41.17h0c0,22.72-18.45,41.17-41.17,41.17H72.24V13.88h0Z"/>
    </clipPath>
    <clipPath id="clippath-1">
      <path class="cls-1" d="M55.05,107.4c-28.87,0-52.35-23.48-52.35-52.35S26.18,2.7,55.05,2.7s52.35,23.48,52.35,52.35-23.48,52.35-52.35,52.35Z"/>
    </clipPath>
  </defs>
  <g id="Layer_1-2" data-name="Layer 1">
    <g>
      <g class="cls-2">
        <rect class="cls-49" x="72.24" y="13.88" width="296.69" height="1.08"/>
        <rect class="cls-52" x="72.24" y="14.96" width="296.69" height="1.08"/>
        <rect class="cls-35" x="72.24" y="16.04" width="296.69" height="1.08"/>
        <rect class="cls-36" x="72.24" y="17.13" width="296.69" height="1.08"/>
        <rect class="cls-33" x="72.24" y="18.21" width="296.69" height="1.08"/>
        <rect class="cls-34" x="72.24" y="19.29" width="296.69" height="1.08"/>
        <rect class="cls-61" x="72.24" y="20.38" width="296.69" height="1.08"/>
        <rect class="cls-60" x="72.24" y="21.46" width="296.69" height="1.08"/>
        <rect class="cls-29" x="72.24" y="22.55" width="296.69" height="1.08"/>
        <rect class="cls-30" x="72.24" y="23.63" width="296.69" height="1.08"/>
        <rect class="cls-65" x="72.24" y="24.71" width="296.69" height="1.08"/>
        <rect class="cls-66" x="72.24" y="25.8" width="296.69" height="1.08"/>
        <rect class="cls-76" x="72.24" y="26.88" width="296.69" height="1.08"/>
        <rect class="cls-75" x="72.24" y="27.96" width="296.69" height="1.08"/>
        <rect class="cls-67" x="72.24" y="29.05" width="296.69" height="1.08"/>
        <rect class="cls-68" x="72.24" y="30.13" width="296.69" height="1.08"/>
        <rect class="cls-69" x="72.24" y="31.21" width="296.69" height="1.08"/>
        <rect class="cls-70" x="72.24" y="32.3" width="296.69" height="1.08"/>
        <rect class="cls-77" x="72.24" y="33.38" width="296.69" height="1.08"/>
        <rect class="cls-78" x="72.24" y="34.46" width="296.69" height="1.08"/>
        <rect class="cls-72" x="72.24" y="35.55" width="296.69" height="1.08"/>
        <rect class="cls-71" x="72.24" y="36.63" width="296.69" height="1.08"/>
        <rect class="cls-62" x="72.24" y="37.71" width="296.69" height="1.08"/>
        <rect class="cls-63" x="72.24" y="38.8" width="296.69" height="1.08"/>
        <rect class="cls-55" x="72.24" y="39.88" width="296.69" height="1.08"/>
        <rect class="cls-56" x="72.24" y="40.97" width="296.69" height="1.08"/>
        <rect class="cls-57" x="72.24" y="42.05" width="296.69" height="1.08"/>
        <rect class="cls-38" x="72.24" y="43.13" width="296.69" height="1.08"/>
        <rect class="cls-37" x="72.24" y="44.22" width="296.69" height="1.08"/>
        <rect class="cls-59" x="72.24" y="45.3" width="296.69" height="1.08"/>
        <rect class="cls-58" x="72.24" y="46.38" width="296.69" height="1.08"/>
        <rect class="cls-74" x="72.24" y="47.47" width="296.69" height="1.08"/>
        <rect class="cls-73" x="72.24" y="48.55" width="296.69" height="1.08"/>
        <rect class="cls-64" x="72.24" y="49.63" width="296.69" height="1.08"/>
        <rect class="cls-32" x="72.24" y="50.72" width="296.69" height="1.08"/>
        <rect class="cls-31" x="72.24" y="51.8" width="296.69" height="1.08"/>
        <rect class="cls-28" x="72.24" y="52.88" width="296.69" height="1.08"/>
        <rect class="cls-79" x="72.24" y="53.97" width="296.69" height="1.08"/>
        <rect class="cls-80" x="72.24" y="55.05" width="296.69" height="1.08"/>
        <rect class="cls-20" x="72.24" y="56.13" width="296.69" height="1.08"/>
        <rect class="cls-21" x="72.24" y="57.22" width="296.69" height="1.08"/>
        <rect class="cls-11" x="72.24" y="58.3" width="296.69" height="1.08"/>
        <rect class="cls-12" x="72.24" y="59.38" width="296.69" height="1.08"/>
        <rect class="cls-9" x="72.24" y="60.47" width="296.69" height="1.08"/>
        <rect class="cls-10" x="72.24" y="61.55" width="296.69" height="1.08"/>
        <rect class="cls-16" x="72.24" y="62.64" width="296.69" height="1.08"/>
        <rect class="cls-15" x="72.24" y="63.72" width="296.69" height="1.08"/>
        <rect class="cls-14" x="72.24" y="64.8" width="296.69" height="1.08"/>
        <rect class="cls-13" x="72.24" y="65.89" width="296.69" height="1.08"/>
        <rect class="cls-25" x="72.24" y="66.97" width="296.69" height="1.08"/>
        <rect class="cls-26" x="72.24" y="68.05" width="296.69" height="1.08"/>
        <rect class="cls-27" x="72.24" y="69.14" width="296.69" height="1.08"/>
        <rect class="cls-24" x="72.24" y="70.22" width="296.69" height="1.08"/>
        <rect class="cls-23" x="72.24" y="71.3" width="296.69" height="1.08"/>
        <rect class="cls-47" x="72.24" y="72.39" width="296.69" height="1.08"/>
        <rect class="cls-48" x="72.24" y="73.47" width="296.69" height="1.08"/>
        <rect class="cls-53" x="72.24" y="74.55" width="296.69" height="1.08"/>
        <rect class="cls-54" x="72.24" y="75.64" width="296.69" height="1.08"/>
        <rect class="cls-45" x="72.24" y="76.72" width="296.69" height="1.08"/>
        <rect class="cls-44" x="72.24" y="77.8" width="296.69" height="1.08"/>
        <rect class="cls-41" x="72.24" y="78.89" width="296.69" height="1.08"/>
        <rect class="cls-42" x="72.24" y="79.97" width="296.69" height="1.08"/>
        <rect class="cls-51" x="72.24" y="81.06" width="296.69" height="1.08"/>
        <rect class="cls-50" x="72.24" y="82.14" width="296.69" height="1.08"/>
        <rect class="cls-40" x="72.24" y="83.22" width="296.69" height="1.08"/>
        <rect class="cls-39" x="72.24" y="84.31" width="296.69" height="1.08"/>
        <rect class="cls-19" x="72.24" y="85.39" width="296.69" height="1.08"/>
        <rect class="cls-22" x="72.24" y="86.47" width="296.69" height="1.08"/>
        <rect class="cls-18" x="72.24" y="87.56" width="296.69" height="1.08"/>
        <rect class="cls-17" x="72.24" y="88.64" width="296.69" height="1.08"/>
        <rect class="cls-43" x="72.24" y="89.72" width="296.69" height="1.08"/>
        <rect class="cls-46" x="72.24" y="90.81" width="296.69" height="1.08"/>
        <rect class="cls-7" x="72.24" y="91.89" width="296.69" height="1.08"/>
        <rect class="cls-8" x="72.24" y="92.97" width="296.69" height="1.08"/>
        <rect class="cls-6" x="72.24" y="94.06" width="296.69" height="1.08"/>
        <rect class="cls-5" x="72.24" y="95.14" width="296.69" height="1.08"/>
      </g>
      <g>
        <g class="cls-81">
          <rect class="cls-49" x="2.7" y="2.7" width="104.7" height=".97"/>
          <rect class="cls-49" x="2.7" y="3.67" width="104.7" height="1.39"/>
          <rect class="cls-52" x="2.7" y="5.06" width="104.7" height="1.39"/>
          <rect class="cls-35" x="2.7" y="6.45" width="104.7" height="1.39"/>
          <rect class="cls-36" x="2.7" y="7.84" width="104.7" height="1.39"/>
          <rect class="cls-33" x="2.7" y="9.22" width="104.7" height="1.39"/>
          <rect class="cls-34" x="2.7" y="10.61" width="104.7" height="1.39"/>
          <rect class="cls-61" x="2.7" y="12" width="104.7" height="1.39"/>
          <rect class="cls-60" x="2.7" y="13.39" width="104.7" height="1.39"/>
          <rect class="cls-29" x="2.7" y="14.78" width="104.7" height="1.39"/>
          <rect class="cls-30" x="2.7" y="16.17" width="104.7" height="1.39"/>
          <rect class="cls-65" x="2.7" y="17.55" width="104.7" height="1.39"/>
          <rect class="cls-66" x="2.7" y="18.94" width="104.7" height="1.39"/>
          <rect class="cls-76" x="2.7" y="20.33" width="104.7" height="1.39"/>
          <rect class="cls-75" x="2.7" y="21.72" width="104.7" height="1.39"/>
          <rect class="cls-67" x="2.7" y="23.11" width="104.7" height="1.39"/>
          <rect class="cls-68" x="2.7" y="24.5" width="104.7" height="1.39"/>
          <rect class="cls-69" x="2.7" y="25.88" width="104.7" height="1.39"/>
          <rect class="cls-70" x="2.7" y="27.27" width="104.7" height="1.39"/>
          <rect class="cls-77" x="2.7" y="28.66" width="104.7" height="1.39"/>
          <rect class="cls-78" x="2.7" y="30.05" width="104.7" height="1.39"/>
          <rect class="cls-72" x="2.7" y="31.44" width="104.7" height="1.39"/>
          <rect class="cls-71" x="2.7" y="32.83" width="104.7" height="1.39"/>
          <rect class="cls-62" x="2.7" y="34.22" width="104.7" height="1.39"/>
          <rect class="cls-63" x="2.7" y="35.6" width="104.7" height="1.39"/>
          <rect class="cls-55" x="2.7" y="36.99" width="104.7" height="1.39"/>
          <rect class="cls-56" x="2.7" y="38.38" width="104.7" height="1.39"/>
          <rect class="cls-57" x="2.7" y="39.77" width="104.7" height="1.39"/>
          <rect class="cls-38" x="2.7" y="41.16" width="104.7" height="1.39"/>
          <rect class="cls-37" x="2.7" y="42.55" width="104.7" height="1.39"/>
          <rect class="cls-59" x="2.7" y="43.93" width="104.7" height="1.39"/>
          <rect class="cls-58" x="2.7" y="45.32" width="104.7" height="1.39"/>
          <rect class="cls-74" x="2.7" y="46.71" width="104.7" height="1.39"/>
          <rect class="cls-73" x="2.7" y="48.1" width="104.7" height="1.39"/>
          <rect class="cls-64" x="2.7" y="49.49" width="104.7" height="1.39"/>
          <rect class="cls-32" x="2.7" y="50.88" width="104.7" height="1.39"/>
          <rect class="cls-31" x="2.7" y="52.26" width="104.7" height="1.39"/>
          <rect class="cls-28" x="2.7" y="53.65" width="104.7" height="1.39"/>
          <rect class="cls-79" x="2.7" y="55.04" width="104.7" height="1.39"/>
          <rect class="cls-80" x="2.7" y="56.43" width="104.7" height="1.39"/>
          <rect class="cls-20" x="2.7" y="57.82" width="104.7" height="1.39"/>
          <rect class="cls-21" x="2.7" y="59.21" width="104.7" height="1.39"/>
          <rect class="cls-11" x="2.7" y="60.59" width="104.7" height="1.39"/>
          <rect class="cls-12" x="2.7" y="61.98" width="104.7" height="1.39"/>
          <rect class="cls-9" x="2.7" y="63.37" width="104.7" height="1.39"/>
          <rect class="cls-10" x="2.7" y="64.76" width="104.7" height="1.39"/>
          <rect class="cls-16" x="2.7" y="66.15" width="104.7" height="1.39"/>
          <rect class="cls-15" x="2.7" y="67.54" width="104.7" height="1.39"/>
          <rect class="cls-14" x="2.7" y="68.93" width="104.7" height="1.39"/>
          <rect class="cls-13" x="2.7" y="70.31" width="104.7" height="1.39"/>
          <rect class="cls-25" x="2.7" y="71.7" width="104.7" height="1.39"/>
          <rect class="cls-26" x="2.7" y="73.09" width="104.7" height="1.39"/>
          <rect class="cls-27" x="2.7" y="74.48" width="104.7" height="1.39"/>
          <rect class="cls-24" x="2.7" y="75.87" width="104.7" height="1.39"/>
          <rect class="cls-23" x="2.7" y="77.26" width="104.7" height="1.39"/>
          <rect class="cls-47" x="2.7" y="78.64" width="104.7" height="1.39"/>
          <rect class="cls-48" x="2.7" y="80.03" width="104.7" height="1.39"/>
          <rect class="cls-53" x="2.7" y="81.42" width="104.7" height="1.39"/>
          <rect class="cls-54" x="2.7" y="82.81" width="104.7" height="1.39"/>
          <rect class="cls-45" x="2.7" y="84.2" width="104.7" height="1.39"/>
          <rect class="cls-44" x="2.7" y="85.59" width="104.7" height="1.39"/>
          <rect class="cls-41" x="2.7" y="86.97" width="104.7" height="1.39"/>
          <rect class="cls-42" x="2.7" y="88.36" width="104.7" height="1.39"/>
          <rect class="cls-51" x="2.7" y="89.75" width="104.7" height="1.39"/>
          <rect class="cls-50" x="2.7" y="91.14" width="104.7" height="1.39"/>
          <rect class="cls-40" x="2.7" y="92.53" width="104.7" height="1.39"/>
          <rect class="cls-39" x="2.7" y="93.92" width="104.7" height="1.39"/>
          <rect class="cls-19" x="2.7" y="95.3" width="104.7" height="1.39"/>
          <rect class="cls-22" x="2.7" y="96.69" width="104.7" height="1.39"/>
          <rect class="cls-18" x="2.7" y="98.08" width="104.7" height="1.39"/>
          <rect class="cls-17" x="2.7" y="99.47" width="104.7" height="1.39"/>
          <rect class="cls-43" x="2.7" y="100.86" width="104.7" height="1.39"/>
          <rect class="cls-46" x="2.7" y="102.25" width="104.7" height="1.39"/>
          <rect class="cls-7" x="2.7" y="103.63" width="104.7" height="1.39"/>
          <rect class="cls-8" x="2.7" y="105.02" width="104.7" height="1.39"/>
          <rect class="cls-6" x="2.7" y="106.41" width="104.7" height=".99"/>
        </g>
        <path class="cls-3" d="M55.05,5.4c27.42,0,49.65,22.23,49.65,49.65s-22.23,49.65-49.65,49.65S5.4,82.47,5.4,55.05,27.63,5.4,55.05,5.4m0-5.4C24.7,0,0,24.7,0,55.05s24.7,55.05,55.05,55.05,55.05-24.7,55.05-55.05S85.41,0,55.05,0h0Z"/>
      </g>
      <g id="WA_Logo" data-name="WA Logo">
        <path class="cls-4" d="M76.83,33.15c-5.78-5.78-13.46-8.97-21.65-8.97-16.87,0-30.6,13.73-30.61,30.6,0,5.39,1.41,10.66,4.09,15.3l-4.34,15.86,16.23-4.25c4.47,2.44,9.5,3.72,14.63,3.72h.01c16.87,0,30.6-13.73,30.61-30.6,0-8.18-3.18-15.86-8.96-21.65Zm-21.65,47.08h-.01c-4.56,0-9.04-1.23-12.95-3.54l-.93-.55-9.63,2.52,2.57-9.38-.61-.96c-2.55-4.05-3.89-8.73-3.89-13.53,0-14.02,11.42-25.43,25.45-25.43,6.79,0,13.18,2.65,17.99,7.46,4.8,4.81,7.45,11.2,7.44,17.99,0,14.02-11.42,25.43-25.44,25.43Zm13.95-19.05c-.76-.38-4.52-2.23-5.23-2.49-.7-.26-1.21-.38-1.72,.38-.51,.77-1.98,2.49-2.42,3-.45,.51-.89,.57-1.66,.19-.76-.38-3.23-1.19-6.15-3.79-2.27-2.03-3.81-4.53-4.25-5.3-.45-.77-.05-1.18,.34-1.56,.34-.34,.76-.89,1.15-1.34,.38-.45,.51-.77,.76-1.28,.25-.51,.13-.96-.06-1.34-.19-.38-1.72-4.15-2.36-5.68-.62-1.49-1.25-1.29-1.72-1.31-.45-.02-.96-.03-1.47-.03s-1.34,.19-2.04,.96c-.7,.77-2.68,2.62-2.68,6.38s2.74,7.4,3.12,7.91,5.39,8.23,13.06,11.54c1.82,.79,3.25,1.26,4.36,1.61,1.83,.58,3.5,.5,4.82,.3,1.47-.22,4.52-1.85,5.16-3.64,.64-1.79,.64-3.32,.45-3.64-.19-.32-.7-.51-1.47-.89Z"/>
      </g>
      <g>
        <path class="cls-3" d="M141.84,40.63c1.79,0,3.24,.85,4.34,2.55s1.66,4.68,1.66,8.93-.55,7.21-1.66,8.91c-1.1,1.7-2.55,2.55-4.32,2.55s-3.24-.84-4.34-2.53-1.66-4.68-1.66-8.98,.55-7.18,1.66-8.88,2.55-2.55,4.32-2.55Zm0,3.57c-.7,0-1.25,.46-1.67,1.38-.41,.92-.62,3.1-.62,6.53s.21,5.6,.62,6.52c.42,.91,.97,1.37,1.67,1.37s1.27-.46,1.68-1.38,.62-3.09,.62-6.51-.2-5.61-.62-6.53c-.41-.92-.97-1.38-1.68-1.38Z"/>
        <path class="cls-3" d="M153.22,51.05c-.86-.45-1.52-1.06-1.95-1.84-.44-.78-.66-1.71-.66-2.8,0-1.76,.5-3.17,1.5-4.22,1-1.05,2.35-1.57,4.05-1.57,1.8,0,3.17,.56,4.11,1.68,.94,1.12,1.41,2.48,1.41,4.08,0,1.09-.23,2.04-.68,2.84-.46,.8-1.08,1.41-1.86,1.83,1.05,.51,1.84,1.23,2.36,2.15s.78,2.06,.78,3.41-.26,2.62-.77,3.68c-.52,1.06-1.23,1.88-2.14,2.44-.91,.56-1.93,.84-3.07,.84-1.78,0-3.25-.62-4.41-1.85-1.16-1.23-1.74-2.89-1.74-4.97,0-1.35,.26-2.51,.79-3.48s1.29-1.71,2.27-2.22Zm.4,5.29c0,1.2,.26,2.13,.77,2.78,.51,.65,1.13,.98,1.85,.98s1.32-.31,1.81-.93,.73-1.56,.73-2.8c0-1.07-.25-1.92-.75-2.54s-1.11-.93-1.84-.93-1.32,.31-1.82,.94-.75,1.46-.75,2.5Zm.34-9.62c0,.87,.21,1.55,.62,2.01,.41,.47,.94,.7,1.57,.7s1.18-.23,1.59-.7,.63-1.14,.63-2.01-.21-1.5-.62-1.97-.93-.7-1.56-.7-1.19,.24-1.61,.71-.63,1.13-.63,1.96Z"/>
        <path class="cls-3" d="M176.45,59.18v4h-12.39c.13-1.51,.54-2.95,1.22-4.31,.68-1.36,2-3.15,3.96-5.37,1.55-1.77,2.51-2.96,2.87-3.59,.53-.91,.8-1.82,.8-2.74,0-.98-.22-1.72-.66-2.22-.44-.5-1.02-.75-1.73-.75-1.56,0-2.41,1.17-2.53,3.51l-3.51-.43c.21-2.29,.85-3.97,1.91-5.04,1.06-1.07,2.47-1.61,4.22-1.61,1.93,0,3.39,.63,4.37,1.89,.98,1.26,1.47,2.7,1.47,4.32,0,.92-.12,1.81-.38,2.67s-.64,1.73-1.16,2.61c-.52,.87-1.39,1.99-2.61,3.35-1.14,1.28-1.85,2.12-2.16,2.53-.3,.41-.54,.81-.73,1.2h7.02Z"/>
        <path class="cls-3" d="M190.77,59.18v4h-12.39c.13-1.51,.54-2.95,1.22-4.31,.68-1.36,2-3.15,3.96-5.37,1.55-1.77,2.51-2.96,2.87-3.59,.53-.91,.8-1.82,.8-2.74,0-.98-.22-1.72-.66-2.22-.44-.5-1.02-.75-1.73-.75-1.56,0-2.41,1.17-2.53,3.51l-3.51-.43c.21-2.29,.85-3.97,1.91-5.04,1.06-1.07,2.47-1.61,4.22-1.61,1.93,0,3.39,.63,4.37,1.89,.98,1.26,1.47,2.7,1.47,4.32,0,.92-.12,1.81-.38,2.67s-.64,1.73-1.16,2.61c-.52,.87-1.39,1.99-2.61,3.35-1.14,1.28-1.85,2.12-2.16,2.53-.3,.41-.54,.81-.73,1.2h7.02Z"/>
        <path class="cls-3" d="M192.87,57.19v-4.31h6.95v4.31h-6.95Z"/>
        <path class="cls-3" d="M213.69,46.21l-3.42,.46c-.16-1.67-.83-2.5-2.01-2.5-.77,0-1.41,.42-1.92,1.26-.51,.84-.83,2.53-.96,5.07,.44-.63,.93-1.11,1.47-1.43,.54-.32,1.14-.47,1.8-.47,1.44,0,2.7,.67,3.78,2.01,1.08,1.34,1.61,3.13,1.61,5.35,0,2.37-.57,4.23-1.71,5.58-1.14,1.35-2.54,2.02-4.22,2.02-1.84,0-3.37-.88-4.58-2.63s-1.82-4.66-1.82-8.71,.63-7.08,1.89-8.89c1.26-1.81,2.88-2.71,4.85-2.71,1.36,0,2.51,.46,3.45,1.39s1.53,2.32,1.79,4.2Zm-8,9.41c0,1.42,.26,2.5,.79,3.25,.53,.75,1.13,1.13,1.81,1.13s1.2-.31,1.64-.93c.44-.62,.65-1.64,.65-3.06s-.24-2.54-.71-3.22-1.06-1.01-1.75-1.01-1.25,.32-1.72,.96c-.47,.64-.71,1.6-.71,2.88Z"/>
        <path class="cls-3" d="M222.02,40.63c1.79,0,3.24,.85,4.34,2.55s1.66,4.68,1.66,8.93-.55,7.21-1.66,8.91c-1.1,1.7-2.55,2.55-4.32,2.55s-3.24-.84-4.34-2.53-1.66-4.68-1.66-8.98,.55-7.18,1.66-8.88,2.55-2.55,4.32-2.55Zm0,3.57c-.7,0-1.25,.46-1.67,1.38-.41,.92-.62,3.1-.62,6.53s.21,5.6,.62,6.52c.42,.91,.97,1.37,1.67,1.37s1.27-.46,1.68-1.38,.62-3.09,.62-6.51-.2-5.61-.62-6.53c-.41-.92-.97-1.38-1.68-1.38Z"/>
        <path class="cls-3" d="M242.34,46.21l-3.42,.46c-.16-1.67-.83-2.5-2.01-2.5-.77,0-1.41,.42-1.92,1.26-.51,.84-.83,2.53-.96,5.07,.44-.63,.93-1.11,1.47-1.43,.54-.32,1.14-.47,1.8-.47,1.44,0,2.7,.67,3.78,2.01,1.08,1.34,1.61,3.13,1.61,5.35,0,2.37-.57,4.23-1.71,5.58-1.14,1.35-2.54,2.02-4.22,2.02-1.84,0-3.37-.88-4.58-2.63s-1.82-4.66-1.82-8.71,.63-7.08,1.89-8.89c1.26-1.81,2.88-2.71,4.85-2.71,1.36,0,2.51,.46,3.45,1.39s1.53,2.32,1.79,4.2Zm-8,9.41c0,1.42,.26,2.5,.79,3.25,.53,.75,1.13,1.13,1.81,1.13s1.2-.31,1.64-.93c.44-.62,.65-1.64,.65-3.06s-.24-2.54-.71-3.22-1.06-1.01-1.75-1.01-1.25,.32-1.72,.96c-.47,.64-.71,1.6-.71,2.88Z"/>
        <path class="cls-3" d="M256.63,59.18v4h-12.39c.13-1.51,.54-2.95,1.22-4.31,.68-1.36,2-3.15,3.96-5.37,1.55-1.77,2.51-2.96,2.87-3.59,.53-.91,.8-1.82,.8-2.74,0-.98-.22-1.72-.66-2.22-.44-.5-1.02-.75-1.73-.75-1.56,0-2.41,1.17-2.53,3.51l-3.51-.43c.21-2.29,.85-3.97,1.91-5.04,1.06-1.07,2.47-1.61,4.22-1.61,1.93,0,3.39,.63,4.37,1.89,.98,1.26,1.47,2.7,1.47,4.32,0,.92-.12,1.81-.38,2.67s-.64,1.73-1.16,2.61c-.52,.87-1.39,1.99-2.61,3.35-1.14,1.28-1.85,2.12-2.16,2.53-.3,.41-.54,.81-.73,1.2h7.02Z"/>
        <path class="cls-3" d="M258.73,57.19v-4.31h6.95v4.31h-6.95Z"/>
        <path class="cls-3" d="M274.51,63.18v-4.52h-7.54v-3.77l7.99-14.26h2.98v14.25h2.28v3.79h-2.28v4.52h-3.42Zm0-8.31v-7.67l-4.23,7.67h4.23Z"/>
        <path class="cls-3" d="M293.88,46.21l-3.42,.46c-.16-1.67-.83-2.5-2.01-2.5-.77,0-1.41,.42-1.92,1.26-.51,.84-.83,2.53-.96,5.07,.44-.63,.93-1.11,1.47-1.43,.54-.32,1.14-.47,1.8-.47,1.44,0,2.7,.67,3.78,2.01,1.08,1.34,1.61,3.13,1.61,5.35,0,2.37-.57,4.23-1.71,5.58-1.14,1.35-2.54,2.02-4.22,2.02-1.84,0-3.37-.88-4.58-2.63s-1.82-4.66-1.82-8.71,.63-7.08,1.89-8.89c1.26-1.81,2.88-2.71,4.85-2.71,1.36,0,2.51,.46,3.45,1.39s1.53,2.32,1.79,4.2Zm-8,9.41c0,1.42,.26,2.5,.79,3.25,.53,.75,1.13,1.13,1.81,1.13s1.2-.31,1.64-.93c.44-.62,.65-1.64,.65-3.06s-.24-2.54-.71-3.22-1.06-1.01-1.75-1.01-1.25,.32-1.72,.96c-.47,.64-.71,1.6-.71,2.88Z"/>
        <path class="cls-3" d="M308.17,59.18v4h-12.39c.13-1.51,.54-2.95,1.22-4.31,.68-1.36,2-3.15,3.96-5.37,1.55-1.77,2.51-2.96,2.87-3.59,.53-.91,.8-1.82,.8-2.74,0-.98-.22-1.72-.66-2.22-.44-.5-1.02-.75-1.73-.75-1.56,0-2.41,1.17-2.53,3.51l-3.51-.43c.21-2.29,.85-3.97,1.91-5.04,1.06-1.07,2.47-1.61,4.22-1.61,1.93,0,3.39,.63,4.37,1.89,.98,1.26,1.47,2.7,1.47,4.32,0,.92-.12,1.81-.38,2.67s-.64,1.73-1.16,2.61c-.52,.87-1.39,1.99-2.61,3.35-1.14,1.28-1.85,2.12-2.16,2.53-.3,.41-.54,.81-.73,1.2h7.02Z"/>
        <path class="cls-3" d="M322.49,59.18v4h-12.39c.13-1.51,.54-2.95,1.22-4.31,.68-1.36,2-3.15,3.96-5.37,1.55-1.77,2.51-2.96,2.87-3.59,.53-.91,.8-1.82,.8-2.74,0-.98-.22-1.72-.66-2.22-.44-.5-1.02-.75-1.73-.75-1.56,0-2.41,1.17-2.53,3.51l-3.51-.43c.21-2.29,.85-3.97,1.91-5.04,1.06-1.07,2.47-1.61,4.22-1.61,1.93,0,3.39,.63,4.37,1.89,.98,1.26,1.47,2.7,1.47,4.32,0,.92-.12,1.81-.38,2.67s-.64,1.73-1.16,2.61c-.52,.87-1.39,1.99-2.61,3.35-1.14,1.28-1.85,2.12-2.16,2.53-.3,.41-.54,.81-.73,1.2h7.02Z"/>
      </g>
    </g>
  </g>
</svg>